<?xml version="1.0" encoding="iso-8859-1"?>
<!-- Uploaded to: SVG Repo, www.svgrepo.com, Generator: SVG Repo Mixer Tools -->
<svg height="800px" width="800px" version="1.1" id="Layer_1" xmlns="http://www.w3.org/2000/svg" xmlns:xlink="http://www.w3.org/1999/xlink" 
	 viewBox="0 0 512 512" xml:space="preserve">
<g transform="translate(1 1)">
	<path style="fill:#00DA6C;" d="M476.867,400.067c0,56.32-46.08,102.4-102.4,102.4s-102.4-46.08-102.4-102.4
		s46.08-102.4,102.4-102.4S476.867,343.747,476.867,400.067"/>
	<path style="fill:#00AD55;" d="M374.467,297.667c-4.267,0-8.533,0-12.8,0.853c50.347,5.973,89.6,49.493,89.6,101.547
		s-39.253,95.573-89.6,101.547c4.267,0.853,8.533,0.853,12.8,0.853c56.32,0,102.4-46.08,102.4-102.4
		S430.787,297.667,374.467,297.667"/>
	<path style="fill:#FFE100;" d="M272.067,400.067c0-56.32,46.08-102.4,102.4-102.4c22.187,0,42.667,6.827,59.733,19.627v-281.6
		c0-5.973-5.12-11.093-11.093-11.093H306.2h-34.133v25.6h-76.8V24.6h-34.133H44.227c-5.973,0-11.093,5.12-11.093,11.093v456.533
		c0,5.12,5.12,10.24,11.093,10.24h330.24C318.147,502.467,272.067,456.387,272.067,400.067"/>
	<path style="fill:#FFFFFF;" d="M50.2,491.373V35.693c0-5.973,5.12-11.093,11.093-11.093H44.227c-5.973,0-11.093,5.12-11.093,11.093
		v456.533c0,5.12,5.12,10.24,11.093,10.24h17.067C55.32,502.467,50.2,497.347,50.2,491.373"/>
	<path style="fill:#FFA800;" d="M423.107,24.6H406.04c5.973,0,11.093,5.12,11.093,11.093v272.213
		c5.973,2.56,11.947,5.973,17.067,10.24v-281.6C434.2,29.72,429.08,24.6,423.107,24.6"/>
	<path style="fill:#FFE100;" d="M272.067,400.067c0-56.32,46.08-102.4,102.4-102.4c5.973,0,11.093,0.853,17.067,1.707V67.267H331.8
		V75.8H135.533v-8.533H75.8V459.8h215.893C278.893,442.733,272.067,422.253,272.067,400.067"/>
	<g>
		<polygon style="fill:#FDCC00;" points="195.267,50.2 272.067,50.2 272.067,7.533 195.267,7.533 		"/>
		<polygon style="fill:#FDCC00;" points="272.067,24.6 272.067,50.2 195.267,50.2 195.267,24.6 135.533,24.6 135.533,75.8 
			331.8,75.8 331.8,24.6 		"/>
	</g>
	<path d="M272.067,58.733h-76.8c-5.12,0-8.533-3.413-8.533-8.533V7.533c0-5.12,3.413-8.533,8.533-8.533h76.8
		c5.12,0,8.533,3.413,8.533,8.533V50.2C280.6,55.32,277.187,58.733,272.067,58.733z M203.8,41.667h59.733v-25.6H203.8V41.667z"/>
	<path d="M331.8,84.333H135.533c-5.12,0-8.533-3.413-8.533-8.533V24.6c0-5.12,3.413-8.533,8.533-8.533h59.733
		c5.12,0,8.533,3.413,8.533,8.533v17.067h59.733V24.6c0-5.12,3.413-8.533,8.533-8.533H331.8c5.12,0,8.533,3.413,8.533,8.533v51.2
		C340.333,80.92,336.92,84.333,331.8,84.333z M144.067,67.267h179.2V33.133H280.6V50.2c0,5.12-3.413,8.533-8.533,8.533h-76.8
		c-5.12,0-8.533-3.413-8.533-8.533V33.133h-42.667V67.267z"/>
	<path d="M178.2,331.8h-42.667c-5.12,0-8.533-3.413-8.533-8.533c0-5.12,3.413-8.533,8.533-8.533H178.2
		c5.12,0,8.533,3.413,8.533,8.533C186.733,328.387,183.32,331.8,178.2,331.8z"/>
	<path d="M263.533,331.8h-17.067c-5.12,0-8.533-3.413-8.533-8.533c0-5.12,3.413-8.533,8.533-8.533h17.067
		c5.12,0,8.533,3.413,8.533,8.533C272.067,328.387,268.653,331.8,263.533,331.8z"/>
	<path d="M212.333,331.8c-2.56,0-4.267-0.853-5.973-2.56c-1.707-1.707-2.56-3.413-2.56-5.973s0.853-4.267,2.56-5.973
		c0.853-0.853,1.707-1.707,2.56-1.707c3.413-1.707,6.827-0.853,9.387,1.707c1.707,1.707,2.56,4.267,2.56,5.973
		c0,2.56-0.853,4.267-2.56,5.973C216.6,330.947,214.893,331.8,212.333,331.8"/>
	<path d="M229.4,374.467h-59.733c-5.12,0-8.533-3.413-8.533-8.533s3.413-8.533,8.533-8.533H229.4c5.12,0,8.533,3.413,8.533,8.533
		S234.52,374.467,229.4,374.467z"/>
	<path d="M135.533,374.467c-2.56,0-4.267-0.853-5.973-2.56c-1.707-1.707-2.56-3.413-2.56-5.973s0.853-4.267,2.56-5.973
		c0.853-0.853,1.707-1.707,2.56-1.707c3.413-1.707,6.827-0.853,9.387,1.707c1.707,1.707,2.56,4.267,2.56,5.973
		c0,2.56-0.853,4.267-2.56,5.973C139.8,373.613,138.093,374.467,135.533,374.467"/>
	<path d="M135.533,263.533c-1.707,0-3.413-0.853-5.12-1.707c-3.413-2.56-5.12-7.68-1.707-11.947l42.667-59.733
		c1.707-1.707,3.413-3.413,5.973-3.413c2.56,0,4.267,0,6.827,1.707l27.307,20.48l29.013-43.52c2.56-3.413,6.827-4.267,10.24-3.413
		l37.547,15.36l38.4-38.4c3.413-3.413,8.533-3.413,11.947,0c3.413,3.413,3.413,8.533,0,11.947L295.96,193.56
		c-2.56,2.56-5.973,3.413-9.387,1.707l-35.84-14.507l-29.867,45.227c-1.707,1.707-3.413,3.413-5.973,3.413
		c-2.56,0-4.267,0-6.827-1.707l-27.307-20.48l-37.547,52.907C140.653,262.68,138.093,263.533,135.533,263.533z"/>
	<path d="M374.467,511c-61.44,0-110.933-49.493-110.933-110.933s49.493-110.933,110.933-110.933S485.4,338.627,485.4,400.067
		S435.907,511,374.467,511z M374.467,306.2c-52.053,0-93.867,41.813-93.867,93.867s41.813,93.867,93.867,93.867
		s93.867-41.813,93.867-93.867S426.52,306.2,374.467,306.2z"/>
	<path d="M372.76,441.88c-1.707,0-4.267-0.853-5.12-1.707l-40.96-33.28c-3.413-2.56-4.267-8.533-0.853-11.947
		c2.56-3.413,8.533-4.267,11.947-0.853l33.28,27.307l47.787-68.267c2.56-4.267,7.68-5.12,11.947-1.707
		c4.267,2.56,5.12,7.68,1.707,11.947l-52.907,75.947c-1.707,1.707-3.413,3.413-5.973,3.413
		C373.613,441.88,372.76,441.88,372.76,441.88z"/>
	<path d="M374.467,511H44.227c-11.093,0-19.627-8.533-19.627-19.627V35.693c0-11.093,8.533-19.627,19.627-19.627H203.8v25.6h59.733
		v-25.6h159.573c11.093,0,19.627,8.533,19.627,19.627V334.36l-13.653-9.387c-16.213-12.8-34.987-18.773-54.613-18.773
		c-52.053,0-93.867,41.813-93.867,93.867s41.813,93.867,93.867,93.867V511z M44.227,33.133c-1.707,0-2.56,0.853-2.56,2.56v456.533
		c0,0.853,0.853,1.707,2.56,1.707h271.36c-30.72-19.627-52.053-54.613-52.053-93.867c0-61.44,49.493-110.933,110.933-110.933
		c17.92,0,35.84,4.267,51.2,12.8V35.693c0-1.707-0.853-2.56-2.56-2.56H280.6v25.6h-93.867v-25.6H44.227z"/>
	<path d="M307.907,468.333H67.267v-409.6h76.8v8.533h179.2v-8.533h76.8v250.88l-10.24-1.707c-5.12-0.853-10.24-1.707-15.36-1.707
		c-52.053,0-93.867,41.813-93.867,93.867c0,19.627,5.973,38.4,17.92,54.613L307.907,468.333z M84.333,451.267h192
		c-8.533-15.36-12.8-33.28-12.8-51.2c0-61.44,49.493-110.933,110.933-110.933c2.56,0,5.973,0,8.533,0V75.8h-42.667v8.533H127V75.8
		H84.333V451.267z"/>
</g>
</svg>